<svg width="60" height="60" viewBox="0 0 60 60" fill="none" xmlns="http://www.w3.org/2000/svg">
<circle cx="30" cy="30" r="29.5" stroke="#3A10E5"/>
<g clip-path="url(#clip0_948_13579)">
<path d="M37.541 28.7967C37.4709 28.7853 37.3999 28.7801 37.3289 28.781H25.2349L25.4987 28.6584C25.7564 28.5364 25.9909 28.3703 26.1917 28.1677L29.5831 24.7763C30.0298 24.3499 30.1048 23.664 29.761 23.1511C29.3608 22.6045 28.5933 22.4859 28.0467 22.8861C28.0025 22.9184 27.9606 22.9537 27.9211 22.9916L21.7883 29.1245C21.309 29.6032 21.3086 30.3798 21.7873 30.8591C21.7877 30.8594 21.788 30.8597 21.7883 30.86L27.9211 36.9929C28.4008 37.4712 29.1774 37.4701 29.6557 36.9904C29.6934 36.9527 29.7285 36.9125 29.761 36.8702C30.1048 36.3573 30.0298 35.6714 29.5831 35.245L26.1978 31.8474C26.0178 31.6673 25.8109 31.5162 25.5845 31.3997L25.2165 31.2341H37.2614C37.888 31.2574 38.4377 30.8197 38.5554 30.2038C38.6638 29.5352 38.2097 28.9052 37.541 28.7967Z" fill="#3A10E5"/>
</g>
<defs>
<clipPath id="clip0_948_13579">
<rect width="17.1429" height="17.1429" fill="white" transform="translate(21.4286 21.4286)"/>
</clipPath>
</defs>
</svg>
