<svg width="20" height="20" viewBox="0 0 20 20" fill="none" xmlns="http://www.w3.org/2000/svg">
<g clip-path="url(#clip0_868_5614)">
<rect x="0.908203" y="0.90918" width="18.1818" height="18.1818" rx="4" fill="#2AB930"/>
<rect x="0.908203" y="0.90918" width="18.1818" height="18.1818" rx="4" stroke="white"/>
<path d="M7.39182 10.0001C7.24255 9.86586 7.04804 9.79302 6.84731 9.7962C6.64658 9.79938 6.45447 9.87834 6.30953 10.0172C6.16459 10.1561 6.07752 10.3447 6.06581 10.5451C6.05409 10.7455 6.11859 10.943 6.24636 11.0978L8.01227 12.9512C8.08621 13.0288 8.17505 13.0906 8.27347 13.133C8.37188 13.1754 8.47785 13.1974 8.585 13.1978C8.69158 13.1984 8.7972 13.1776 8.89559 13.1366C8.99398 13.0957 9.08312 13.0353 9.15773 12.9592L14.5509 7.39101C14.624 7.3158 14.6816 7.22692 14.7204 7.12945C14.7592 7.03198 14.7784 6.92783 14.7769 6.82294C14.7754 6.71805 14.7533 6.61448 14.7118 6.51814C14.6703 6.4218 14.6102 6.33458 14.535 6.26146C14.4598 6.18834 14.3709 6.13075 14.2734 6.09197C14.176 6.0532 14.0718 6.034 13.9669 6.03548C13.862 6.03696 13.7585 6.05908 13.6621 6.10058C13.5658 6.14209 13.4786 6.20216 13.4055 6.27737L8.59295 11.2569L7.39182 10.0001Z" fill="white"/>
</g>
<defs>
<clipPath id="clip0_868_5614">
<rect width="20" height="20" fill="white"/>
</clipPath>
</defs>
</svg>
