<svg width="14" height="20" viewBox="0 0 14 20" fill="none" xmlns="http://www.w3.org/2000/svg">
<path d="M3.66602 4.99984V3.33317C3.66602 2.89114 3.84161 2.46722 4.15417 2.15466C4.46673 1.8421 4.89066 1.6665 5.33268 1.6665H8.66602C9.10804 1.6665 9.53197 1.8421 9.84453 2.15466C10.1571 2.46722 10.3327 2.89114 10.3327 3.33317V4.99984M12.8327 4.99984V16.6665C12.8327 17.1085 12.6571 17.5325 12.3445 17.845C12.032 18.1576 11.608 18.3332 11.166 18.3332H2.83268C2.39065 18.3332 1.96673 18.1576 1.65417 17.845C1.34161 17.5325 1.16602 17.1085 1.16602 16.6665V4.99984H12.8327Z" stroke="#9A9A9A" stroke-width="2" stroke-linecap="round" stroke-linejoin="round"/>
</svg>
