<svg width="16" height="17" viewBox="0 0 16 17" fill="none" xmlns="http://www.w3.org/2000/svg">
<g clip-path="url(#clip0_1587_6572)">
<path d="M15.7377 8.68371C15.7377 8.13989 15.6935 7.59314 15.5991 7.05814H8.02667V10.1388H12.363C12.1831 11.1324 11.6049 12.0113 10.7583 12.5698V14.5687H13.3453C14.8645 13.1754 15.7377 11.1177 15.7377 8.68371Z" fill="#4285F4"/>
<path d="M8.02666 16.5C10.1919 16.5 12.0179 15.7916 13.3483 14.5687L10.7612 12.5698C10.0414 13.0578 9.11222 13.3341 8.02961 13.3341C5.93518 13.3341 4.15934 11.9261 3.52217 10.033H0.852509V12.0936C2.21536 14.7951 4.99122 16.5 8.02666 16.5Z" fill="#34A853"/>
<path d="M3.51924 10.033C3.18295 9.03941 3.18295 7.96353 3.51924 6.96996V4.90933H0.852531C-0.28613 7.16985 -0.28613 9.83309 0.852531 12.0936L3.51924 10.033Z" fill="#FBBC04"/>
<path d="M8.02666 3.66589C9.17122 3.64825 10.2774 4.07743 11.1064 4.86523L13.3984 2.5812C11.9471 1.22312 10.0208 0.476473 8.02666 0.49999C4.99122 0.49999 2.21536 2.20493 0.852509 4.90932L3.51922 6.96995C4.15344 5.07394 5.93223 3.66589 8.02666 3.66589Z" fill="#EA4335"/>
</g>
<defs>
<clipPath id="clip0_1587_6572">
<rect width="15.7377" height="16" fill="white" transform="translate(0 0.5)"/>
</clipPath>
</defs>
</svg>
