<svg width="206" height="99" viewBox="0 0 206 99" fill="none" xmlns="http://www.w3.org/2000/svg">
<path opacity="0.3" d="M174.536 1H178.974M184.744 1H195.48C200.826 1 205.16 5.33391 205.16 10.68V14.4445M205.16 21.6148V26.9926M205.16 31.026V34.6111M205.16 80.3223V88.12C205.16 93.466 200.826 97.8 195.48 97.8H187.85M182.969 97.8H178.974M25.8543 97.8H19.1969M13.871 97.8H10.68C5.33391 97.8 1 93.466 1 88.12V85.48M1 75.8405V78M1 71.3595V65.9818M1 56.5702V48.9518M1 32.3704V29.6815M1 21.6148V10.68C1 5.33391 5.33391 1 10.68 1H19.1969" stroke="#3785D7" stroke-width="1.5" stroke-linecap="round"/>
</svg>
